<svg width="200" height="200" viewBox="0 0 200 200" fill="none" xmlns="http://www.w3.org/2000/svg">
  <g clip-path="url(#clip0_1_2)">
    <rect width="200" height="200" />
    <path
      d="M193.675 132.529L115.325 87.2973C106.861 82.411 93.1388 82.411 84.675 87.2973L6.32511 132.529C-2.13867 137.415 -2.13867 145.338 6.32511 150.224L84.675 195.456C93.1387 200.342 106.861 200.342 115.325 195.456L193.675 150.224C202.139 145.338 202.139 137.415 193.675 132.529Z"
      fill="#F3F3FB" />
    <g style="mix-blend-mode:multiply">
      <g style="mix-blend-mode:multiply">
        <path
          d="M140.224 164.681C145.437 161.672 143.598 154.906 136.268 147.137C148.867 142.633 155.917 137.333 153.818 133.121C153.345 132.144 152.368 131.247 150.985 130.449L147.408 132.513C148.175 132.956 148.647 133.395 148.89 133.85C149.904 135.88 146.124 139.198 139.231 142.292C137.54 143.057 135.652 143.801 133.666 144.524C131.171 142.195 128.2 139.795 124.838 137.409C125.556 134.398 125.919 131.496 125.928 128.779C136.218 129.108 143.977 130.514 147.441 132.514L151.018 130.449C146.437 127.805 137.298 126.158 125.782 125.806C125.14 119.176 122.255 113.918 117.675 111.274L114.098 113.339C117.546 115.329 120.013 119.809 120.615 125.731C115.926 125.746 110.915 125.946 105.733 126.38C101.584 124.429 97.426 122.714 93.376 121.283C94.596 120.136 95.869 119.074 97.161 118.098C102.505 114.109 108.234 111.916 111.75 112.483C112.538 112.605 113.316 112.906 114.082 113.348L117.659 111.283C116.26 110.475 114.705 109.911 112.996 109.629C105.718 108.427 96.569 112.497 88.816 119.761C75.376 115.558 63.7064 114.506 58.5099 117.506C53.2973 120.516 55.1364 127.281 62.4664 135.05C49.8673 139.554 42.8177 144.855 44.9164 149.066C45.3896 150.043 46.3668 150.941 47.7659 151.748C52.3463 154.393 61.4861 156.039 73.002 156.391C73.644 163.021 76.528 168.279 81.109 170.923C82.508 171.731 84.063 172.295 85.771 172.578C93.05 173.78 102.199 169.71 109.952 162.445C123.342 166.638 135.028 167.681 140.224 164.681ZM129.236 145.985C126.551 146.824 123.652 147.613 120.652 148.345C121.252 147.21 121.819 146.055 122.32 144.863C122.837 143.68 123.271 142.486 123.674 141.311C125.703 142.871 127.567 144.429 129.236 145.985ZM104.526 151.442C101.062 151.942 97.677 152.358 94.386 152.662C91.695 151.35 89.068 149.963 86.536 148.501C84.021 147.049 81.618 145.532 79.346 143.998C79.872 142.098 80.56 140.143 81.41 138.153C82.245 136.209 83.229 134.314 84.329 132.467C87.51 131.823 90.826 131.255 94.176 130.763C97.64 130.263 101.026 129.847 104.317 129.544C107.007 130.856 109.634 132.243 112.166 133.705C114.681 135.157 117.084 136.673 119.357 138.208C118.83 140.108 118.143 142.062 117.293 144.053C116.457 145.997 115.474 147.892 114.374 149.738C111.175 150.373 107.877 150.951 104.526 151.442ZM111.991 153.345C110.742 155.105 109.359 156.788 107.906 158.357C105.211 157.393 102.48 156.316 99.761 155.136C101.812 154.894 103.895 154.634 105.961 154.326C108.01 154.028 110.025 153.691 111.991 153.345ZM77.989 153.474C77.98 151.691 78.147 149.806 78.491 147.838C79.926 148.74 81.41 149.653 82.959 150.547C84.525 151.451 86.106 152.327 87.702 153.155C84.326 153.373 81.061 153.47 77.989 153.474ZM75.044 140.866C73.015 139.306 71.1503 137.748 69.4816 136.192C72.167 135.354 75.066 134.564 78.065 133.833C77.465 134.968 76.898 136.122 76.398 137.315C75.898 138.508 75.446 139.691 75.044 140.866ZM120.729 128.704C120.738 130.487 120.571 132.372 120.227 134.34C118.792 133.437 117.308 132.525 115.759 131.631C114.193 130.727 112.612 129.851 111.016 129.022C114.392 128.804 117.657 128.708 120.729 128.704ZM98.957 127.042C96.905 127.284 94.822 127.544 92.757 127.852C90.708 128.15 88.708 128.477 86.742 128.824C87.992 127.064 89.375 125.381 90.827 123.812C93.506 124.784 96.238 125.861 98.957 127.042ZM63.8024 129.932C60.328 125.13 59.6895 121.095 62.2075 119.641C64.7256 118.187 71.7315 118.547 80.034 120.562C82.059 121.046 84.154 121.644 86.267 122.29C84.073 124.653 82.05 127.263 80.247 130.093C75.379 131.134 70.8905 132.302 66.8302 133.569C65.6784 132.33 64.6581 131.111 63.8024 129.932ZM49.8441 148.337C48.8299 146.307 52.6107 142.99 59.5036 139.895C61.1945 139.13 63.0821 138.387 65.0685 137.663C67.5632 139.992 70.5342 142.393 73.897 144.778C73.178 147.789 72.816 150.691 72.806 153.408C62.5168 153.079 54.7576 151.674 51.2932 149.673C50.5597 149.232 50.0711 148.783 49.8441 148.337ZM101.574 164.09C96.23 168.079 90.5 170.271 86.985 169.704C86.196 169.583 85.418 169.282 84.652 168.839C81.204 166.849 78.737 162.369 78.135 156.447C82.825 156.432 87.835 156.232 93.017 155.798C97.167 157.749 101.324 159.464 105.375 160.895C104.138 162.052 102.882 163.123 101.574 164.09ZM118.684 161.616C116.658 161.131 114.563 160.533 112.45 159.887C114.645 157.525 116.667 154.914 118.47 152.085C123.339 151.044 127.827 149.876 131.888 148.609C133.039 149.848 134.06 151.066 134.932 152.255C138.406 157.057 139.045 161.092 136.527 162.546C133.992 163.99 126.986 163.631 118.684 161.616Z"
          fill="#61DAFB" />
      </g>
      <g style="mix-blend-mode:multiply">
        <path
          d="M92.341 145.034C96.314 147.328 102.638 147.397 106.464 145.188C110.291 142.978 110.171 139.328 106.197 137.034C102.224 134.74 95.901 134.671 92.074 136.88C88.248 139.089 88.367 142.739 92.341 145.034Z"
          fill="#61DAFB" />
      </g>
    </g>
    <path
      d="M193.675 50.0792L115.325 4.84725C106.861 -0.0389497 93.1388 -0.0389497 84.675 4.84725L6.32511 50.0792C-2.13867 54.9654 -2.13867 62.8875 6.32511 67.7737L84.675 113.006C93.1387 117.892 106.861 117.892 115.325 113.006L193.675 67.7737C202.139 62.8875 202.139 54.9654 193.675 50.0792Z"
      fill="#43436B" />
    <path
      d="M131.461 78.457C120.016 72.104 115.248 77.556 105.541 74.027C95.68 70.4413 115.863 57.3249 107.829 52.6869C99.794 48.0484 77.176 59.0506 52.8105 61.5011L52.1185 61.5692L61.2373 81.21L112.858 89.196L131.461 78.457Z"
      fill="#36A2EB" />
    <path
      d="M132.107 78.084C133.172 73.131 136.167 68.4588 130.684 65.2933C120.981 59.6915 107.705 70.3038 96.981 64.1128C86.256 57.9212 102.155 47.4407 74 49.6667C65.0289 50.3759 56.2263 51.8597 48.3977 53.5529L61.2368 81.21L112.857 89.197L132.107 78.084Z"
      fill="#FFCE56" />
    <path opacity="0.8"
      d="M60.0961 44.0804C73.975 40.3193 83.823 36.469 90.853 40.5273C101.577 46.7183 74.002 65.5849 86.26 69.1229C98.516 72.661 113.835 62.6375 128.135 70.8929C130.856 72.464 131.968 75.031 131.985 78.155L112.86 89.196L61.2392 81.21L47.4041 51.4082L60.0966 44.0807L60.0961 44.0804Z"
      fill="#FE6184" />
    <path
      d="M58.8431 82.563L44.1439 50.9018L84.288 27.7261L139.131 36.2118L153.83 67.8729L113.686 91.048L58.8431 82.563ZM50.5875 51.8986L63.559 79.84L111.959 87.329L147.386 66.876L134.415 38.9346L86.015 31.446L50.5875 51.8986Z"
      fill="#D5D5E2" />
  </g>
  <defs>
    <clipPath id="clip0_1_2">
      <rect width="200" height="200" fill="white" />
    </clipPath>
  </defs>
</svg>
