<svg width="256" height="256" viewBox="0 0 256 256" fill="none" xmlns="http://www.w3.org/2000/svg">
    <g clip-path="url(#clip0_851:3441)">
        <rect width="125.86" height="125.86" rx="17.6955"
            transform="matrix(0.866041 0.499972 -0.866041 0.499972 128 106.45)" fill="#F3F3FB" />
        <g style="mix-blend-mode:multiply" clip-path="url(#clip1_851:3441)">
            <path
                d="M168.224 192.681C173.437 189.672 171.598 182.906 164.268 175.137C176.867 170.633 183.917 165.333 181.818 161.121C181.345 160.144 180.368 159.247 178.985 158.449L175.408 160.513C176.175 160.956 176.647 161.395 176.89 161.85C177.904 163.88 174.124 167.198 167.231 170.292C165.54 171.057 163.652 171.801 161.666 172.524C159.171 170.195 156.2 167.795 152.838 165.409C153.556 162.398 153.919 159.496 153.928 156.779C164.218 157.108 171.977 158.514 175.441 160.514L179.018 158.449C174.437 155.805 165.298 154.158 153.782 153.806C153.14 147.176 150.255 141.918 145.675 139.274L142.098 141.339C145.546 143.329 148.013 147.809 148.615 153.731C143.926 153.746 138.915 153.946 133.733 154.38C129.584 152.429 125.426 150.714 121.376 149.283C122.596 148.136 123.869 147.074 125.161 146.098C130.505 142.109 136.234 139.916 139.75 140.483C140.538 140.605 141.316 140.906 142.082 141.348L145.659 139.283C144.26 138.475 142.705 137.911 140.996 137.629C133.718 136.427 124.569 140.497 116.816 147.761C103.376 143.558 91.7064 142.506 86.5099 145.506C81.2973 148.516 83.1364 155.281 90.4664 163.05C77.8673 167.554 70.8177 172.855 72.9164 177.066C73.3896 178.043 74.3668 178.941 75.7659 179.748C80.3463 182.393 89.4861 184.039 101.002 184.391C101.644 191.021 104.528 196.279 109.109 198.923C110.508 199.731 112.063 200.295 113.771 200.578C121.05 201.78 130.199 197.71 137.952 190.445C151.342 194.638 163.028 195.681 168.224 192.681ZM157.236 173.985C154.551 174.824 151.652 175.613 148.652 176.345C149.252 175.21 149.819 174.055 150.32 172.863C150.837 171.68 151.271 170.486 151.674 169.311C153.703 170.871 155.567 172.429 157.236 173.985ZM132.526 179.442C129.062 179.942 125.677 180.358 122.386 180.662C119.695 179.35 117.068 177.963 114.536 176.501C112.021 175.049 109.618 173.532 107.346 171.998C107.872 170.098 108.56 168.143 109.41 166.153C110.245 164.209 111.229 162.314 112.329 160.467C115.51 159.823 118.826 159.255 122.176 158.763C125.64 158.263 129.026 157.847 132.317 157.544C135.007 158.856 137.634 160.243 140.166 161.705C142.681 163.157 145.084 164.673 147.357 166.208C146.83 168.108 146.143 170.062 145.293 172.053C144.457 173.997 143.474 175.892 142.374 177.738C139.175 178.373 135.877 178.951 132.526 179.442ZM139.991 181.345C138.742 183.105 137.359 184.788 135.906 186.357C133.211 185.393 130.48 184.316 127.761 183.136C129.812 182.894 131.895 182.634 133.961 182.326C136.01 182.028 138.025 181.691 139.991 181.345ZM105.989 181.474C105.98 179.691 106.147 177.806 106.491 175.838C107.926 176.74 109.41 177.653 110.959 178.547C112.525 179.451 114.106 180.327 115.702 181.155C112.326 181.373 109.061 181.47 105.989 181.474ZM103.044 168.866C101.015 167.306 99.1503 165.748 97.4816 164.192C100.167 163.354 103.066 162.564 106.065 161.833C105.465 162.968 104.898 164.122 104.398 165.315C103.898 166.508 103.446 167.691 103.044 168.866ZM148.729 156.704C148.738 158.487 148.571 160.372 148.227 162.34C146.792 161.437 145.308 160.525 143.759 159.631C142.193 158.727 140.612 157.851 139.016 157.022C142.392 156.804 145.657 156.708 148.729 156.704ZM126.957 155.042C124.905 155.284 122.822 155.544 120.757 155.852C118.708 156.15 116.708 156.477 114.742 156.824C115.992 155.064 117.375 153.381 118.827 151.812C121.506 152.784 124.238 153.861 126.957 155.042ZM91.8024 157.932C88.328 153.13 87.6895 149.095 90.2075 147.641C92.7256 146.187 99.7315 146.547 108.034 148.562C110.059 149.046 112.154 149.644 114.267 150.29C112.073 152.653 110.05 155.263 108.247 158.093C103.379 159.134 98.8905 160.302 94.8302 161.569C93.6784 160.33 92.6581 159.111 91.8024 157.932ZM77.8441 176.337C76.8299 174.307 80.6107 170.99 87.5036 167.895C89.1945 167.13 91.0821 166.387 93.0685 165.663C95.5632 167.992 98.5342 170.393 101.897 172.778C101.178 175.789 100.816 178.691 100.806 181.408C90.5168 181.079 82.7576 179.674 79.2932 177.673C78.5597 177.232 78.0711 176.783 77.8441 176.337ZM129.574 192.09C124.23 196.079 118.5 198.271 114.985 197.704C114.196 197.583 113.418 197.282 112.652 196.839C109.204 194.849 106.737 190.369 106.135 184.447C110.825 184.432 115.835 184.232 121.017 183.798C125.167 185.749 129.324 187.464 133.375 188.895C132.138 190.052 130.882 191.123 129.574 192.09ZM146.684 189.616C144.658 189.131 142.563 188.533 140.45 187.887C142.645 185.525 144.667 182.914 146.47 180.085C151.339 179.044 155.827 177.876 159.888 176.609C161.039 177.848 162.06 179.066 162.932 180.255C166.406 185.057 167.045 189.092 164.527 190.546C161.992 191.99 154.986 191.631 146.684 189.616Z"
                fill="#61DAFB" />
            <path
                d="M120.341 173.034C124.314 175.328 130.638 175.397 134.464 173.188C138.291 170.978 138.171 167.328 134.197 165.034C130.224 162.74 123.901 162.671 120.074 164.88C116.248 167.089 116.367 170.739 120.341 173.034Z"
                fill="#61DAFB" />
        </g>
    </g>
    <g clip-path="url(#clip2_851:3441)">
        <rect width="125.86" height="125.86" rx="17.6955"
            transform="matrix(0.866041 0.499972 -0.866041 0.499972 128 24)" fill="#43436B" />
        <path
            d="M159.461 106.457C148.016 100.104 143.248 105.556 133.541 102.027C123.68 98.4413 143.863 85.3249 135.829 80.6869C127.794 76.0484 105.176 87.0506 80.8105 89.5011L80.1185 89.5692L89.2373 109.21L140.858 117.196L159.461 106.457Z"
            fill="#36A2EB" />
        <path
            d="M160.107 106.084C161.172 101.131 164.167 96.4588 158.684 93.2933C148.981 87.6915 135.705 98.3038 124.981 92.1128C114.256 85.9212 130.155 75.4407 102 77.6667C93.0289 78.3759 84.2263 79.8597 76.3977 81.5529L89.2368 109.21L140.857 117.197L160.107 106.084Z"
            fill="#FFCE56" />
        <path opacity="0.8"
            d="M88.0961 72.0804C101.975 68.3193 111.823 64.469 118.853 68.5273C129.577 74.7183 102.002 93.5849 114.26 97.1229C126.516 100.661 141.835 90.6375 156.135 98.8929C158.856 100.464 159.968 103.031 159.985 106.155L140.86 117.196L89.2392 109.21L75.4041 79.4082L88.0966 72.0807L88.0961 72.0804Z"
            fill="#FE6184" />
        <path
            d="M86.8431 110.563L72.1439 78.9018L112.288 55.7261L167.131 64.2118L181.83 95.8729L141.686 119.048L86.8431 110.563ZM78.5875 79.8986L91.559 107.84L139.959 115.329L175.386 94.876L162.415 66.9346L114.015 59.446L78.5875 79.8986Z"
            fill="#D5D5E2" />
    </g>
    <defs>
        <clipPath id="clip0_851:3441">
            <rect width="125.86" height="125.86" rx="17.6955"
                transform="matrix(0.866041 0.499972 -0.866041 0.499972 128 106.45)" fill="white" />
        </clipPath>
        <clipPath id="clip1_851:3441">
            <rect width="94.351" height="81.4009" fill="white"
                transform="matrix(0.866041 0.499972 -0.866041 0.499972 121.46 125.33)" />
        </clipPath>
        <clipPath id="clip2_851:3441">
            <rect width="125.86" height="125.86" rx="17.6955"
                transform="matrix(0.866041 0.499972 -0.866041 0.499972 128 24)" fill="white" />
        </clipPath>
    </defs>
</svg>
